<svg id="Layer_1" data-name="Layer 1" xmlns="http://www.w3.org/2000/svg" viewBox="0 0 137.97 128.61"><defs><style>.cls-1,.cls-2{fill:none;stroke-linecap:round;stroke-linejoin:round;stroke-width:3px;}.cls-1{stroke:#adefc1;}.cls-2{stroke:#777c8e;}.cls-3{font-size:22.41px;fill:#777c8e;font-family:OpenSans-Bold, Open Sans;font-weight:700;}</style></defs><title>icon</title><path class="cls-1" d="M131,114.79a2.39,2.39,0,0,1-2.58.49,5.4,5.4,0,0,1-2.31-3h0c0,2.18-.93,3.94-2.07,3.94H42.15c-3.84,0-6.95-5.94-6.95-13.26V87.75c0-7.32,3.11-13.26,6.95-13.26h79.36c3.84,0,7,5.94,7,13.26v21.14a8.77,8.77,0,0,0,.26,3.94C129.22,114.25,130.12,115,131,114.79Z"/><path class="cls-2" d="M6.93,51.35a2.44,2.44,0,0,0,2.57.47A5.23,5.23,0,0,0,11.82,49h0c0,2.1.93,3.81,2.06,3.81H95.82c3.84,0,7-5.75,7-12.84V25.17c0-7.08-3.11-12.83-7-12.83H16.46c-3.84,0-7,5.75-7,12.83V45.64a8,8,0,0,1-.25,3.81C8.75,50.82,7.85,51.56,6.93,51.35Z"/><text class="cls-3" transform="translate(49.84 39.78)">?</text><polyline class="cls-1" points="72.39 96.04 78.48 102.13 93.14 87.47"/></svg>