<svg id="Layer_1" data-name="Layer 1" xmlns="http://www.w3.org/2000/svg" viewBox="0 0 137.97 128.61"><defs><style>.cls-1{fill:none;stroke:#adefc1;stroke-linecap:round;stroke-linejoin:round;stroke-width:3px;}</style></defs><title>icon</title><rect class="cls-1" x="8.64" y="56.89" width="46.53" height="14.24" rx="7.12" transform="translate(-35.92 41.31) rotate(-45)"/><rect class="cls-1" x="19.36" y="67.61" width="46.53" height="14.24" rx="7.12" transform="translate(-40.36 52.03) rotate(-45)"/><rect class="cls-1" x="30.11" y="78.36" width="46.53" height="14.24" rx="7.12" transform="translate(-44.81 62.78) rotate(-45)"/><path class="cls-1" d="M80.83,90.1,58,112.94a7.12,7.12,0,0,1-10.06-10.07L70.76,80A7.12,7.12,0,0,1,80.83,90.1Z"/><path class="cls-1" d="M60.57,110.37,69,118.78a9,9,0,1,0,12.71-12.71c3.78,5,10.89,5.25,14.64,1.55s3.54-10.92-1.46-14.73c4.24,5.67,12,5.84,15.59,2.21s3.31-11.28-2.32-15.48c4.35,4.93,11.66,4.51,14.83.59,2.83-3.47,2.36-9.67-2-13.37L86.46,32.37A22.29,22.29,0,0,1,66.9,41.64l-1.15-.52L61,36.33a5.14,5.14,0,0,1,0-7.27L73.51,16.51l-.05-.05A32.26,32.26,0,0,0,52,6.73,37.39,37.39,0,0,0,14.6,54.25a24.13,24.13,0,0,0,6.3,10.62l0,0"/><line class="cls-1" x1="108.14" y1="79.62" x2="92.22" y2="63.7"/><line class="cls-1" x1="94.87" y1="92.89" x2="77.56" y2="75.57"/><line class="cls-1" x1="81.69" y1="106.07" x2="73.28" y2="97.65"/><path class="cls-1" d="M73.51,16.51c14.18-10.61,37.29.55,44.39,12.57,5.54,9.36,6.26,22.51-3,31.77"/></svg>