<svg id="Layer_1" data-name="Layer 1" xmlns="http://www.w3.org/2000/svg" viewBox="0 0 137.97 128.61"><defs><style>.cls-1{fill:none;stroke:#777c8e;stroke-linecap:round;stroke-linejoin:round;stroke-width:3px;}</style></defs><title>icon</title><path class="cls-1" d="M40.91,23.9l11.2,17.28a4,4,0,0,1-.81,5.22l-4,3.28a9.23,9.23,0,0,0-1.81,12.23A88.73,88.73,0,0,0,56.76,75.57a88.35,88.35,0,0,0,14.57,11.7,9.74,9.74,0,0,0,13-2.34l2.28-3a4.18,4.18,0,0,1,5.62-1l17,11.09a3.49,3.49,0,0,1,1.07,4.73l-2.11,3.48a23.87,23.87,0,0,1-30.95,9,114.06,114.06,0,0,1-53.5-55.13,22.31,22.31,0,0,1,8.2-28L36.77,23A3,3,0,0,1,40.91,23.9Z"/><path class="cls-1" d="M70.7,42.87A26,26,0,0,1,90.26,61.14"/><path class="cls-1" d="M67.18,29.72A41.6,41.6,0,0,1,103.73,64"/><path class="cls-1" d="M64,16.9A55.28,55.28,0,0,1,99.4,31.81,55.44,55.44,0,0,1,116.23,68"/></svg>